<?xml version="1.0" encoding="utf-8"?>
<!-- Generator: Adobe Illustrator 20.1.0, SVG Export Plug-In . SVG Version: 6.00 Build 0)  -->
<svg version="1.1" xmlns="http://www.w3.org/2000/svg" xmlns:xlink="http://www.w3.org/1999/xlink" x="0px" y="0px"
	 viewBox="0 0 135.8 137.4" style="enable-background:new 0 0 135.8 137.4;" xml:space="preserve">
<style type="text/css">
	.st0{display:none;fill:none;}
	.st1{fill:#FFFFFF;}
	.st2{display:none;}
</style>
<g id="_x32_Avenir_More_space_around_font">
	<g>
		<path class="st0" d="M68.8,23.4c-17.3,0-32.4,9.7-40,24h80C101.1,33.1,86.1,23.4,68.8,23.4z"/>
		<path class="st0" d="M68.8,114c17.6,0,32.8-10,40.3-24.6H28.5C36,104,51.2,114,68.8,114z"/>
		<path class="st1" d="M68.8,114c-17.6,0-32.8-10-40.3-24.6H3.3c8.8,27.8,34.8,48,65.5,48c30.7,0,56.7-20.2,65.5-48h-25.2
			C101.6,104,86.3,114,68.8,114z"/>
		<path class="st1" d="M68.8,23.4c17.3,0,32.4,9.7,40,24h25.3C125.1,19.9,99.3,0,68.8,0S12.4,19.9,3.5,47.4h25.3
			C36.4,33.1,51.4,23.4,68.8,23.4z"/>
		<g>
			<polygon class="st2" points="145.2,47.4 134.1,47.4 108.8,47.4 28.8,47.4 3.5,47.4 -12.1,47.4 -12.1,89.4 3.3,89.4 28.5,89.4
				109.1,89.4 134.3,89.4 145.2,89.4 			"/>
		</g>
	</g>
	<g>
		<g>
			<path class="st1" d="M0.1,68.4c0-1.5,0.3-2.9,0.8-4.2c0.5-1.3,1.2-2.3,2.2-3.2c0.9-0.9,2-1.6,3.3-2s2.7-0.7,4.2-0.7
				s2.9,0.2,4.2,0.7c1.3,0.5,2.4,1.1,3.3,2c0.9,0.9,1.6,1.9,2.2,3.2s0.8,2.7,0.8,4.2c0,1.5-0.3,2.9-0.8,4.2S18.9,75,18,75.8
				c-0.9,0.9-2,1.6-3.3,2c-1.3,0.5-2.7,0.7-4.2,0.7s-2.9-0.2-4.2-0.7c-1.3-0.5-2.4-1.1-3.3-2c-0.9-0.9-1.6-1.9-2.2-3.2
				C0.4,71.4,0.1,70,0.1,68.4z M4.5,68.4c0,0.9,0.1,1.7,0.4,2.5c0.3,0.8,0.7,1.4,1.2,2c0.5,0.6,1.2,1,1.9,1.3
				c0.7,0.3,1.6,0.5,2.5,0.5s1.7-0.2,2.5-0.5c0.7-0.3,1.4-0.7,1.9-1.3c0.5-0.6,0.9-1.2,1.2-2c0.3-0.8,0.4-1.6,0.4-2.5
				c0-0.9-0.1-1.7-0.4-2.5s-0.7-1.4-1.2-2c-0.5-0.6-1.2-1-1.9-1.3s-1.6-0.5-2.5-0.5s-1.7,0.2-2.5,0.5S6.7,63.4,6.2,64
				c-0.5,0.6-0.9,1.2-1.2,2S4.5,67.6,4.5,68.4z"/>
			<path class="st1" d="M10.5,78.7c-1.5,0-2.9-0.2-4.2-0.7C5,77.5,3.9,76.8,3,75.9C2,75,1.3,74,0.8,72.7S0,70,0,68.4s0.3-3,0.8-4.2
				C1.3,62.9,2,61.9,3,61c0.9-0.9,2.1-1.6,3.3-2.1c1.3-0.5,2.7-0.7,4.2-0.7s2.9,0.2,4.2,0.7c1.3,0.5,2.4,1.2,3.3,2.1
				c0.9,0.9,1.7,2,2.2,3.2c0.5,1.3,0.8,2.7,0.8,4.2s-0.3,3-0.8,4.2C19.8,74,19,75,18.1,75.9c-0.9,0.9-2.1,1.6-3.3,2.1
				C13.5,78.5,12,78.7,10.5,78.7z M10.5,58.4c-1.5,0-2.9,0.2-4.1,0.7c-1.2,0.5-2.3,1.1-3.3,2S1.5,63.1,1,64.3
				c-0.5,1.2-0.8,2.6-0.8,4.1s0.3,2.9,0.8,4.1c0.5,1.2,1.2,2.3,2.1,3.2c0.9,0.9,2,1.5,3.3,2c1.3,0.5,2.6,0.7,4.1,0.7
				s2.9-0.2,4.1-0.7c1.2-0.5,2.3-1.1,3.3-2c0.9-0.9,1.6-1.9,2.1-3.2c0.5-1.2,0.8-2.6,0.8-4.1s-0.3-2.9-0.8-4.1
				c-0.5-1.2-1.2-2.3-2.1-3.2c-0.9-0.9-2-1.5-3.3-2C13.4,58.7,12,58.4,10.5,58.4z M10.5,74.8c-0.9,0-1.8-0.2-2.5-0.5
				C7.3,74,6.6,73.6,6.1,73c-0.5-0.6-1-1.2-1.2-2c-0.3-0.8-0.4-1.6-0.4-2.5c0-0.9,0.1-1.8,0.4-2.5c0.3-0.8,0.7-1.5,1.2-2
				c0.5-0.6,1.2-1,1.9-1.3c0.7-0.3,1.6-0.5,2.5-0.5c0.9,0,1.8,0.2,2.5,0.5c0.7,0.3,1.4,0.8,1.9,1.3c0.5,0.6,1,1.2,1.2,2
				c0.3,0.8,0.4,1.6,0.4,2.5c0,0.9-0.1,1.8-0.4,2.5c-0.3,0.8-0.7,1.4-1.2,2c-0.5,0.6-1.2,1-1.9,1.3C12.3,74.6,11.5,74.8,10.5,74.8z
				 M10.5,62.4c-0.9,0-1.7,0.2-2.4,0.5c-0.7,0.3-1.3,0.7-1.9,1.3c-0.5,0.5-0.9,1.2-1.2,1.9s-0.4,1.6-0.4,2.4c0,0.9,0.1,1.7,0.4,2.4
				c0.3,0.7,0.7,1.4,1.2,1.9s1.1,1,1.9,1.3c0.7,0.3,1.5,0.5,2.4,0.5s1.7-0.2,2.4-0.5c0.7-0.3,1.3-0.7,1.9-1.3s0.9-1.2,1.2-1.9
				c0.3-0.7,0.4-1.6,0.4-2.4c0-0.9-0.1-1.7-0.4-2.4c-0.3-0.7-0.7-1.4-1.2-1.9c-0.5-0.5-1.1-1-1.9-1.3C12.2,62.5,11.4,62.4,10.5,62.4
				z"/>
		</g>
		<g>
			<path class="st1" d="M23.5,58.8h4.8l4.8,12.6h0.1l4.8-12.6h4.5l-8,19.3h-3.4L23.5,58.8z"/>
			<path class="st1" d="M34.7,78.2h-3.6l0-0.1l-7.8-19.5h5.1l0,0.1l4.7,12.4L38,58.7h4.8l-0.1,0.2L34.7,78.2z M31.3,78h3.2l7.9-19
				h-4.3l-4.8,12.6h-0.2l0-0.1l-4.7-12.6h-4.6L31.3,78z"/>
		</g>
		<g>
			<path class="st1" d="M51.1,58.8h3.5L63,78.1h-4.8L56.6,74h-7.5l-1.6,4.1h-4.7L51.1,58.8z M52.7,64.4l-2.3,6h4.7L52.7,64.4z"/>
			<path class="st1" d="M63.2,78.2h-5.1l-1.7-4.1h-7.3l-1.6,4.1h-5L51,58.7h3.7L63.2,78.2z M58.3,78h4.5l-8.3-19h-3.4L43,78h4.4
				l1.6-4.1h7.7L58.3,78z M55.3,70.5h-5.1l2.5-6.5L55.3,70.5z M50.6,70.3h4.3l-2.2-5.5L50.6,70.3z"/>
		</g>
		<g>
			<path class="st1" d="M68.5,62.6H63v-3.8h15.3v3.8h-5.5v15.5h-4.2V62.6z"/>
			<path class="st1" d="M72.9,78.2h-4.5V62.7h-5.5v-4h15.5v4h-5.5V78.2z M68.6,78h4V62.4h5.5v-3.5h-15v3.5h5.5V78z"/>
		</g>
		<g>
			<path class="st1" d="M83.2,58.8h4.2v19.3h-4.2V58.8z"/>
			<path class="st1" d="M87.6,78.2h-4.5V58.7h4.5V78.2z M83.3,78h4v-19h-4V78z"/>
		</g>
		<g>
			<path class="st1" d="M91.9,68.4c0-1.5,0.3-2.9,0.8-4.2c0.5-1.3,1.2-2.3,2.2-3.2c0.9-0.9,2-1.6,3.3-2s2.7-0.7,4.2-0.7
				s2.9,0.2,4.2,0.7c1.3,0.5,2.4,1.1,3.3,2c0.9,0.9,1.6,1.9,2.2,3.2s0.8,2.7,0.8,4.2c0,1.5-0.3,2.9-0.8,4.2s-1.2,2.3-2.2,3.2
				c-0.9,0.9-2,1.6-3.3,2c-1.3,0.5-2.7,0.7-4.2,0.7s-2.9-0.2-4.2-0.7c-1.3-0.5-2.4-1.1-3.3-2c-0.9-0.9-1.6-1.9-2.2-3.2
				C92.2,71.4,91.9,70,91.9,68.4z M96.3,68.4c0,0.9,0.1,1.7,0.4,2.5c0.3,0.8,0.7,1.4,1.2,2c0.5,0.6,1.2,1,1.9,1.3
				c0.7,0.3,1.6,0.5,2.5,0.5s1.7-0.2,2.5-0.5c0.7-0.3,1.4-0.7,1.9-1.3c0.5-0.6,0.9-1.2,1.2-2c0.3-0.8,0.4-1.6,0.4-2.5
				c0-0.9-0.1-1.7-0.4-2.5s-0.7-1.4-1.2-2c-0.5-0.6-1.2-1-1.9-1.3s-1.6-0.5-2.5-0.5s-1.7,0.2-2.5,0.5S98.5,63.4,98,64
				c-0.5,0.6-0.9,1.2-1.2,2S96.3,67.6,96.3,68.4z"/>
			<path class="st1" d="M102.3,78.7c-1.5,0-2.9-0.2-4.2-0.7c-1.3-0.5-2.4-1.2-3.3-2.1c-0.9-0.9-1.7-2-2.2-3.2s-0.8-2.7-0.8-4.2
				s0.3-3,0.8-4.2c0.5-1.3,1.3-2.4,2.2-3.2c0.9-0.9,2.1-1.6,3.3-2.1c1.3-0.5,2.7-0.7,4.2-0.7s2.9,0.2,4.2,0.7
				c1.3,0.5,2.4,1.2,3.3,2.1c0.9,0.9,1.7,2,2.2,3.2c0.5,1.3,0.8,2.7,0.8,4.2s-0.3,3-0.8,4.2c-0.5,1.3-1.3,2.4-2.2,3.2
				c-0.9,0.9-2.1,1.6-3.3,2.1C105.3,78.5,103.8,78.7,102.3,78.7z M102.3,58.4c-1.5,0-2.9,0.2-4.1,0.7c-1.2,0.5-2.3,1.1-3.3,2
				s-1.6,1.9-2.1,3.2c-0.5,1.2-0.8,2.6-0.8,4.1s0.3,2.9,0.8,4.1c0.5,1.2,1.2,2.3,2.1,3.2c0.9,0.9,2,1.5,3.3,2
				c1.3,0.5,2.6,0.7,4.1,0.7s2.9-0.2,4.1-0.7c1.2-0.5,2.3-1.1,3.3-2c0.9-0.9,1.6-1.9,2.1-3.2c0.5-1.2,0.8-2.6,0.8-4.1
				s-0.3-2.9-0.8-4.1c-0.5-1.2-1.2-2.3-2.1-3.2c-0.9-0.9-2-1.5-3.3-2C105.2,58.7,103.8,58.4,102.3,58.4z M102.3,74.8
				c-0.9,0-1.8-0.2-2.5-0.5c-0.7-0.3-1.4-0.8-1.9-1.3c-0.5-0.6-1-1.2-1.2-2c-0.3-0.8-0.4-1.6-0.4-2.5c0-0.9,0.1-1.8,0.4-2.5
				c0.3-0.8,0.7-1.5,1.2-2c0.5-0.6,1.2-1,1.9-1.3c0.7-0.3,1.6-0.5,2.5-0.5c0.9,0,1.8,0.2,2.5,0.5c0.7,0.3,1.4,0.8,1.9,1.3
				c0.5,0.6,1,1.2,1.2,2c0.3,0.8,0.4,1.6,0.4,2.5c0,0.9-0.1,1.8-0.4,2.5c-0.3,0.8-0.7,1.4-1.2,2c-0.5,0.6-1.2,1-1.9,1.3
				C104.1,74.6,103.2,74.8,102.3,74.8z M102.3,62.4c-0.9,0-1.7,0.2-2.4,0.5c-0.7,0.3-1.3,0.7-1.9,1.3c-0.5,0.5-0.9,1.2-1.2,1.9
				s-0.4,1.6-0.4,2.4c0,0.9,0.1,1.7,0.4,2.4c0.3,0.7,0.7,1.4,1.2,1.9s1.1,1,1.9,1.3c0.7,0.3,1.5,0.5,2.4,0.5s1.7-0.2,2.4-0.5
				c0.7-0.3,1.3-0.7,1.9-1.3s0.9-1.2,1.2-1.9c0.3-0.7,0.4-1.6,0.4-2.4c0-0.9-0.1-1.7-0.4-2.4c-0.3-0.7-0.7-1.4-1.2-1.9
				c-0.5-0.5-1.1-1-1.9-1.3C104,62.5,103.2,62.4,102.3,62.4z"/>
		</g>
		<g>
			<path class="st1" d="M117.4,58.8h5.8l8.2,13.4h0.1V58.8h4.2v19.3h-5.6l-8.4-13.7h-0.1v13.7h-4.2V58.8z"/>
			<path class="st1" d="M135.8,78.2H130l0-0.1l-8.2-13.4v13.5h-4.5V58.7h6l0,0.1l8,13.1V58.7h4.5V78.2z M130.2,78h5.4v-19h-4v13.4
				h-0.2l0-0.1l-8.2-13.3h-5.6v19h4V64.2h0.2l0,0.1L130.2,78z"/>
		</g>
	</g>
</g>
<g id="guides">
</g>
<g id="Layer_3" class="st2">
</g>
</svg>
