<?xml version="1.0" encoding="utf-8"?>
<!-- Generator: Adobe Illustrator 27.4.1, SVG Export Plug-In . SVG Version: 6.00 Build 0)  -->
<svg version="1.1" id="Ebene_1" xmlns="http://www.w3.org/2000/svg" xmlns:xlink="http://www.w3.org/1999/xlink" x="0px" y="0px"
	 viewBox="0 0 1400 325" style="enable-background:new 0 0 1400 325;" xml:space="preserve">
<style type="text/css">
	.st0{fill:#C40E0F;}
	.st1{fill:#FFFFFF;}
	.st2{fill:#620708;}
</style>
<g>
	<g>
		<g>
			<circle class="st0" cx="168.2" cy="162.5" r="159.9"/>
		</g>
		<path class="st1" d="M242.8,207.9l-31-11.1v-68.2l31-10.9c8.3-3.1,11.6-9.8,11.6-19.1c0-10.9-8.3-19.9-18.6-19.9
			c-4.7,0-12.1,2.6-16.3,4.1L77.1,133.9c-13.2,4.7-15.5,13.2-15.5,22.7v10.1c0,10.3,3.4,17.1,12.9,20.7l145,54.8
			c4.1,1.5,11.6,4.1,16.3,4.1c11.4,0,18.6-8,18.6-19.6C254.5,216.7,251.1,210.7,242.8,207.9z M182.4,187.4l-74.7-25.1v-0.5l74.7-24
			V187.4z"/>
	</g>
	<g>
		<path class="st2" d="M529.7,77.7c2.2,0,3.3,1.3,3.3,3.5V245c0,2.6-1.1,3.7-3.3,3.7h-33.8c-2.2,0-3.3-1.1-3.3-3.7v-63.5h-64V245
			c0,2.6-1.1,3.7-3.3,3.7h-33.8c-2.2,0-3.3-1.1-3.3-3.7V81.2c0-2.2,1.1-3.5,3.3-3.5h33.8c2.2,0,3.3,1.3,3.3,3.5v64.6h64V81.2
			c0-2.2,1.1-3.5,3.3-3.5H529.7z"/>
		<path class="st2" d="M603.3,77.7c2.2,0,3.3,1.3,3.3,3.5V245c0,2.6-1.1,3.7-3.3,3.7h-33.8c-2.2,0-3.3-1.1-3.3-3.7V81.2
			c0-2.2,1.1-3.5,3.3-3.5H603.3z"/>
		<path class="st2" d="M745,81.5c3.3,1.1,4.4,2.2,4.4,4.6v21.2c0,3.3-1.3,4.4-4.4,4.4h-53c-10.5,0-16.2,3.9-16.2,11.6v2.6
			c0,6.1,3.3,10.7,11.1,13.8l37.8,14c21.4,8.1,32.7,17.2,32.7,46.7v5.7c0,31.9-24.2,43.9-65.5,43.9c-15.5,0-32.7-1.5-54.4-5.5
			c-3.1-0.7-4.1-2.2-4.1-5.5v-19.6c0-3.3,1.3-4.6,4.6-4.6h63.1c10,0,15.5-3.3,15.5-10.7v-2.2c0-8.3-4.8-11.6-15.3-15.3l-37.8-13.8
			c-18.6-6.5-28.6-18.1-28.6-47.8v-4.8c0-31.9,20.5-43.7,63.1-43.7C716.2,76.4,728.6,78,745,81.5z"/>
		<path class="st2" d="M899.8,77.7c2.2,0,3.5,1.1,3.5,3.3v28.6c0,2.2-1.3,3.3-3.5,3.3h-43.9v132.3c0,2.4-1.1,3.5-3.3,3.5h-33.8
			c-2.2,0-3.3-1.1-3.3-3.5V112.9h-43.7c-2.2,0-3.3-1.1-3.3-3.3V81c0-2.2,1.1-3.3,3.3-3.3H899.8z"/>
		<path class="st2" d="M1062,163.3c0,66.6-16.2,86.4-72.9,86.4s-72.7-19.9-72.7-86.4c0-67,15.9-86.9,72.7-86.9S1062,96.3,1062,163.3
			z M957.2,163.3c0,38.6,5.7,51.3,31.9,51.3c26.4,0,31.9-12.7,31.9-51.3c0-39.1-5.5-51.7-31.9-51.7
			C962.8,111.6,957.2,124.2,957.2,163.3z"/>
		<path class="st2" d="M1220.4,133.8c0,32.1-8.5,46.1-32.3,51.3l37.1,59.2c1.7,2.4,0.7,4.4-2.6,4.4h-34.1c-5,0-6.5-1.5-8.7-4.8
			l-35.6-56.1h-14v57.4c0,2.8-0.7,3.5-3.3,3.5h-33.8c-2.6,0-3.3-0.7-3.3-3.5V82.1c0-2.2,0.7-2.8,3.3-3.1c21.4-1.7,43.2-2.6,64-2.6
			C1204.3,76.4,1220.4,90.8,1220.4,133.8z M1130.3,111.6v46.1h22.5c21,0,26.6-4.4,26.6-22.5c0-17.9-5.7-23.6-26.6-23.6H1130.3z"/>
		<path class="st2" d="M1388.3,77.7c3.1,0,4.4,1.3,2.4,4.8L1330,192.3V245c0,2.6-1.1,3.7-3.3,3.7h-33.8c-2.2,0-3.3-1.1-3.3-3.7v-53
			l-60.5-109.4c-2-3.5-0.7-4.8,2.4-4.8h38c3.3,0,4.1,1.1,5.9,3.5l34.5,71.6l34.7-71.6c1.1-2.4,2.6-3.5,5.9-3.5H1388.3z"/>
	</g>
</g>
</svg>
