<?xml version="1.0" encoding="UTF-8" standalone="no"?>
<svg
   id="bird-cells"
   viewBox="0 0 3671 510"
   version="1.1"
   sodipodi:docname="b1rdsc3ll5.svg"
   inkscape:version="1.2.2 (732a01da63, 2022-12-09)"
   xmlns:inkscape="http://www.inkscape.org/namespaces/inkscape"
   xmlns:sodipodi="http://sodipodi.sourceforge.net/DTD/sodipodi-0.dtd"
   xmlns="http://www.w3.org/2000/svg"
   xmlns:svg="http://www.w3.org/2000/svg">
  <defs
     id="defs345" />
  <sodipodi:namedview
     id="namedview343"
     pagecolor="#ffffff"
     bordercolor="#000000"
     borderopacity="0.25"
     inkscape:showpageshadow="2"
     inkscape:pageopacity="0.0"
     inkscape:pagecheckerboard="0"
     inkscape:deskcolor="#d1d1d1"
     showgrid="false"
     inkscape:zoom="0.31953146"
     inkscape:cx="1833.9352"
     inkscape:cy="253.49616"
     inkscape:window-width="1440"
     inkscape:window-height="837"
     inkscape:window-x="-8"
     inkscape:window-y="-8"
     inkscape:window-maximized="1"
     inkscape:current-layer="bird-cells" />
  <g
     fill="none"
     fill-rule="evenodd"
     id="g340">
    <g
       id="g338">
      <path
         class="cell-container"
         stroke="none"
         d="M.5.5h359v509H.5z"
         id="path298" />
      <path
         class="cell-container"
         stroke="none"
         d="M359.5.5h359v509h-359z"
         id="path300" />
      <path
         class="cell-container"
         stroke="none"
         d="M718.5.5h359v509h-359z"
         id="path302" />
      <path
         class="cell-container"
         stroke="none"
         d="M1077.5.5h370v509h-370z"
         id="path304" />
      <path
         class="cell-container"
         stroke="none"
         d="M1448.5.5h370v509h-370z"
         id="path306" />
      <path
         class="cell-container"
         stroke="none"
         d="M1818.5.5h370v509h-370z"
         id="path308" />
      <path
         class="cell-container"
         stroke="none"
         d="M2189.5.5h370v509h-370z"
         id="path310" />
      <path
         class="cell-container"
         stroke="none"
         d="M2559.5.5h370v509h-370z"
         id="path312" />
      <path
         class="cell-container"
         stroke="none"
         d="M2930.5.5h370v509h-370z"
         id="path314" />
      <path
         class="cell-container"
         stroke="none"
         d="M3300.5.5h370v509h-370z"
         id="path316" />
      <path
         fill="#000"
         d="M51 288.38c13.33-5.34 35.33-9.34 66-12 0 0 18.44-9.95 55-15 1.04-.15 7.5-8 36-13 16 0 21-3.88 30 5 3.53-13.53 19.13-16.58 29-15 6.9 1.1 11.3 5.93 12 8 4 12 21 5 30 12-23 6-23 7-32 11-16 14-31 31-47 31-16 4-32.83 5.33-50.5 4-1 4-3.5 6.66-7.5 8-6 2-1-9-4-12s-3 10-17 18c-1-14-5-10-5-18s4 13-17 18c-14 3.33-31.67 4-53 2 26-8.67 41.33-16.34 46-23-5 0-18-1-21-9-14-4.5-30.67-4.5-50 0z"
         id="path318" />
      <path
         fill="#000"
         d="M639 273c0 2.07-10 3-16 5-9 1-8 8-14 7s-5 8-19 14c2 11 21 9 36 19 29 30.62 18 19 37 63 14 28 18 30 27 57-1 1-11-1-14-7-1 5-5 1-4 7-5-1-8-8-12-11-4-1 1 7-2 8-4 0-5-8-9-8-4 1 1 6-2 7-33-30-43-21-43-36-8 10-10-2-19 3-4-5-6-10-2-17-1-5-7 5-11 3-1.33-6 1-12.67 7-20-6.67 6.67-14 10-22 10 1-10-1-6.5 5-16-6 7.5-13 8-19 6-4.43-2.1 4-8 2-11.5-8 0-22.76-.3-24-3.5-3.26-8.4 8-19 4-25-3.12-4.67-12 9-15-3 0-12-4.67-17-14-15-8.67-1.33-19.33-1.33-32 0-19 2-27-5-58-5 10-5 9-13 27-13-21-3-10-10-45-13 30-8 32 0 54 7 68-7 22-15 94-22 14-2 36-4 58 2 5-2 6-5 15-6 8 0 12.67 3.67 14 11 10.67.72 16 1.72 16 3z"
         id="path320" />
      <path
         fill="#000"
         d="M729 299.03c32-14 56-26 90-40 20-6 37-5 56-8 28 0 17-8 55-3 8-1 10.95-7.5 19-7 8.67 0 13.33 2.66 14 8l26 5-24 5c-2.67 5.33-8 8.33-16 9-12 12-11 18-29 21 22 13 23 17 64 38 13 11 13 15 17 31 4 15.98 14.06 25.74 21 35 26 46 23 59 45 80-11-1-23-8-28-13-4-1-3 5-3 8-6-2-8-15-16-13-3.46 0 4 5 0 13-13-5-14-7-16-13-3-4-7-11-3-12-2 8 0 12-6 12-5-10-7-3-11-12-8-14-17-12-17-29-4 0-7 4-10 9-3-4 0-9-1-12-2 .66-4.33 1.66-7 3-2-12.67-2-21.67 0-27-8 2-4 6-15 10-5-6-4-12-2-21-5 6-5-3-12 2-9-9-10-18-25-18-5-12-3-20-11-22-3.23.86-4 10-6 7s-2-10-5-12c-2-3-6 6-9 3 0-5-2-11-6-14-3-4-5 0-10 3-2-5-2-9-1-14-4-1-14 5-12-2 0-7-4-4-8-4-5 0 1-5-1-6-5-2-13 2-21 6-5-2 4-10 0-10-31-1-38 7-76 4z"
         id="path322" />
      <path
         fill="#000"
         d="M1367 254.1l-18-3c-2-6-5.33-9.35-10-10-14-1-17 7-22 10-21-3-19-1-35 0-30-5-36 4-50 7-36 5-33 9-48 16-34 18-41 19-75 29 6.67.65 14 0 22-2-14.67 4-21 6.32-19 7 31-5 29.02 4.23 52 0 11-3 10-9 13-12 2 7 1 7 2 13 16-3 21-2 30-2 3 4-3.66 8.6 0 10 4-1.35 9.33-2.68 16-4-4 4.65-5.67 8.32-5 11 15 2 12 4 24 1-11 4-11 4-16 10 16 3 14 1 24 2-4 4-3 8-1 11 6-3 9.53-4.5 12-3-3 3.44-5 7-2 9 10-2 12.4-5.28 15-2-3 8 0 11 1 22 5 0 10-2 15-4 1 8-3 8-3 16 6 3 13-3 17-1-7 4-7 6-8 9 7 3 6 2 14 0-5.33 4-7 7.65-5 11 5.33-3.35 8.33-3.35 9 0-2 6 0 7 1 15 10-5 10 2 21 5 5.97 3.27 6.4 10.54 11 14 9 6.74 20 9 19 9s-9-11-5-10c3.33 4 7.67 8.32 13 13 0-8-.67-13.68-2-17 9 14 12 12 28 23 3-13-6-18-15-28 19 22 19 20 30 24-24-30-20-26-29-53-14-26-24-61-39-75-18-12-19-17-38-26-3.33-4.68-7.33-8-12-10 12-2 21.33-5.68 28-11 2-5 7-5 11-9 6-1.35 9.67-4.35 11-9l18-6z"
         id="path324" />
      <path
         fill="#000"
         d="M1751 256c-11-1-12-4-24-6-3-6-4-5-10-7-14 0-21 7-29 12-24-3-31-1-44 2-46 12-43 12-70 23-46 27-39 30-58 40 23 6 31-3 47-7-6.67 2.67-8.67 6-6 10 6.67-2.67 11-3.67 13-3-5 2-9.7 10.57-5 10 27-2 30.7-14.27 46-15-4 5-6 8-4 13 12-3 11-2 18-4-2 6-3 6 0 15 8.5 2 13-5 13-5 4 4 0 11 0 20 11 0 11 2 15 0-2 8 2 8 5 14 4-8 7-5 14-12-2 13 5 12 6 21 10-9 11-11 13-21-4 15 2 17 5 28 4-7 7-7 8-16 1 5 3.98 7.87 5 6 3-10 3.32-8.12 4-6-3 13 2 16 5 27 7-12 5-18 5-19 2 15 15 8 28 33 4-14-16-38-23-73-4-23-3-28-14-43-3-7-10-8-13-7 8-4 7-8 12-15 15-2 11-5 15-10-1 0 5-4 23-5z"
         id="path326" />
      <path
         fill="#000"
         d="M2119.66 270.36c0-3-11-6-20-6-1.34-2.67-3.67-5-7-7-5.34-2.67-12.34-2.67-21 0-8 1-16-13-8-26 7-3 10-9 11-14-8-4-11-5-22-4-65 4-85 28-110 50-8 7 10 5 18 5-42 0-78 41-72 37s16 6 35-11c2-1-7 5-15 15 21-3 21-6 39-4-2 7 3.6 7.22 9 8 4.33.62 9.2-.44 15 0 12.53 1.4 13-1 18-1 6 0 5.35.6 9 0 9-2 7-3 10-7-3 8 1 11 6 21 7-6 6-14 6-19 0 13-1 9 2 17 6-5 6-4 8-12-3 10-1 17 3 28 5 0 6.84-4.66 10-3 0 5 0 3 6 13 5-5 2 3 7-8-1 10 4 4 10 18 5-10 3-14-1-23 6 13 8 12 13 19 2-19-1-23-7-36 3-19-6-20-5-33.5 8-10.5 15 2 24-6.5 7-1 4-4 9-7 8-5 19 1 20-3z"
         id="path328" />
      <path
         fill="#000"
         d="M2485 278.84c-6-3-7-1-16-3 1-5-4.66-10-11-10-9.16 0-9.5 5.2-21 8-9 2.2-12.7 3.03-18-2-24-15-11-19-32-44-9-7-12-11-4-21 13-14 17-22 17-32-4-7-85-3-113 34 5.06 1.15 16.8-6.7 20.65-6 4.35 1-18.65 13-9.65 11 9-2 15-7 21-7 2.67-.05-2 2-3 7 3.78.9 9.8-1.85 16-3 3.52-.65 7.9.34 10 0-4 3-10 1-20 17 6 5.5 14-1.5 20-1.5-3 5.5-11 2.5-15 20.5 2 4 11-6 9-2 0 4-7 2-9 18 6 0 8-7 9-2-2 3-5 3-5 9 3 3 9-4 11-4-1 2-6 2-6 10-38 9-49 18-68 30 7 4.9 23-5 25-1-1.46 3.22-11 5.9-28 11 17 2 31 2 42.65-5.1 10.35 1.1 18.57-1.9 21.35-1.9 4 6 0 13 7 15 3-5 8-12 9-15 3-2-5 11 3 13 9 0 19 7 36 7 18 0 22-6 42-13 12-1 20-5 25-18 3-8 9-4 18-13 2-2 12-3 16-6z"
         id="path330" />
      <path
         fill="#000"
         d="M2859 275.74c-.52-2.35-8-3-20-5-6.62-3.1-7.68-9-14-9-13 0-7.83 6.16-21 9-7.7 1.67-15 2-20 0s-6.32-3.7-10-6c-19.2-11.9-10.17.25-19.17-20-10.54-12-10.6-24.55-6.83-42 .97-4.5 2.27-8.15 4-11 6-9.83 12.67-30.6 11-45-1.4-12.16-11-14-27-17-21-4-33-5-58-2-9 8-21 5-33 21 9-1 7-3 14 3 8-4 15.48-1.3 16-1 7.16 4.13-3.54 3.73 1 6 6 0 2 4 0 9 5-.5 8-1 6 4 4.4 3.22 8.36-3.24 9 1 .86 5.76-11.7 9.4-9 17 18 3 20 5 22 7-4 1 3 2-26 11 3 10 14 6 15 16 0 7-9 4-12 17 12 2 9 6 23 6-5 0-18 4-26 12 9 2 6 6 14 7 7 3 6 3.36 4 7-6.5 11.86-5 15-20 23s-26.3 15.78-35 22c-4.63 3.32-7.48 8.23-11 12 12-2 12-3 15-2 2 4 1-3 0 11 6-5 16-12 22-16 5 0 13-3 17 0 5 0 0-7 0-8.96 0-1.96 3.48 5.8 5 3.96 5-6 4-9 3-14 4 3 1 10.9 6 12 19 6 21 5 42-1 1.2-.07 2.95-.92 4.3-.96 1.2 1.42.7 3 3.7 3.96 1.57-2.35 4.93-3.06 6.83-3.1.52 0-.24-.93 0-.86 10 3 17.17 3.96 32.17.96 13-8 24-5 35-17 14-6 14-10 17-16 4-3 9 0 20-4z"
         id="path332" />
      <path
         fill="#000"
         d="M3243 286c-8-3-7-2-17-4-7.6-3.28-5-11-21-13-16.1 1.03-15 14-31 13-10.43-.65-13-7-21-11s-13-5-19-12c-13-42-1.27-9.56-3-59-.27-7.56-6-44-1-54 8-3 4.84-13.8 0-22-32-34-40.22-58.03-60-79-4-1 5 12-2 7-8.8-5.08-7-14-23-22 1 5 4 12 2 15-5-3-14-23-20-23 1 4 8 11 8 23 0 4-14-6-9-1s7 13 9 19c7.25 13.18 22 23 22 22-3-1-17-12-26-11 2 5 8 7 10 17-2 2 0 3-8 0 4 19 14 28 35 41 2.6 4.24-11.1-4.18-14-1-2.6 2.82 1.67 8.6 5 15 9.17 17.6 18.32 18.92 20 30-1 4-9.77-1.26-14 2-2.27 1.74 4.75 5.74 4 10-.75 4.24-9.22 1.68-8 6 2.48 2.98-2 12-1 17s4 6 4 11 7-2 8 6c5 4-1 4-8 12 5 5 10 4 8 14s-7 6-12 12c-5 7-3 11-10 17-9 8-15 4-31 16-13 7-14 2-30 13 18 2 36 12 68 5 5 2-5 5-2 7 14 1 16 3 23 0-4 3-10.62 8.7-7 9 8.53.74 23.38-.95 30 0 8.4 1.2 12.75 5 27 5 7.7 0 16.25-8.18 21-7 7.3 1.8 6 2.93 17 0 19.33-5.15 24-9 39-19 8-12 13-9 20-21 11-2 18-2 18-5z"
         id="path334" />
      <path
         fill="#000"
         d="M3595.2 274c0-2.56-5-4-13-7-4.25-3.13 0-8-10-10-17 0-11.03 8.98-21 12-10-1-9-2-21 1-4.15 1.04-3.9-10.8-6-13-2.97-3.06-5-3-10-8-3-11 6-24 3-45-1.34-9.32-4.68-21.56-9-33-2.45-13.1-2-10-13-23-21-28-37-37-47-67-4.96-4.56-.68 12.44-5 11-7.68-2.56-15.4-19-19-19-2.9 0 7.5 17.9 4 23-3 4.4-17-7.67-17-5 0 3.33 8 16 15 19-4 4-9.5-4.6-11-1 7 9 1 11 6 24 5.77 12.05 11 8 16 18-3.62 4.17-24.5-6.8-26-3-1.02 2.53 9.7 2.7 17 10 6 6 1.8 13.48 6 16 5 3 2 6 8 13s10-2 8 8c-.94 4.66-4 4.34-4 9 0 5.34 8-1 6 5 0 2.57-4 4-6 8 0 .72 7.58-1.47 8 1 1.08 6.53-7.23 11.8-4 17 3.27 5.3 12 4 17 3-5 4-13 3.95-13 9 0 9.45 10 13 4 18 2 5-5 9-4 13s5.17 8.47 10 10c3.24 1.03 9 2 6 3-6 2-7-1-12 3-4.25 0-2-6-10-4-24 4-60 20-73 34-2 3 12-3 21-4-8 3-20 7-5 6 11 1 28 0 57-5 21.46-.66 17 7 39 2 11 3 28 6 43-5 14-2 15.58-9.85 33-23 6-2 11-11 14-17 7.8-3.53 12-1 18-4z"
         id="path336" />
    </g>
  </g>
  <path
     style="fill:#ffffff;stroke-width:3.12958"
     d="m 103.67512,311.68451 c 18.26843,-8.50616 22.90018,-13.61943 14.66497,-16.18954 -3.12132,-0.97413 -8.49175,-3.35024 -11.93429,-5.28025 -3.44254,-1.93001 -11.892416,-4.36195 -18.777497,-5.40431 -11.898425,-1.80135 -11.35601,-2.0741 10.953538,-5.50777 26.085539,-4.01484 71.598999,-16.04092 86.063509,-22.74067 5.16381,-2.39181 19.62375,-4.56835 32.13319,-4.83676 16.14864,-0.34651 24.38821,-1.97562 28.41267,-5.6177 8.67384,-7.84972 25.0611,-6.53629 33.6157,2.69428 4.22966,4.56388 10.89935,7.91584 16.00678,8.04447 8.13721,0.20494 7.89734,0.53517 -3.39525,4.67426 -6.68308,2.44956 -20.62954,11.3973 -30.99214,19.88387 -15.58799,12.76597 -22.17988,16.01154 -38.17862,18.7976 -10.63565,1.85212 -24.92584,3.36749 -31.75599,3.36749 -6.83015,0 -14.10843,1.68997 -16.17396,3.7555 -2.92094,2.92094 -3.7555,2.22548 -3.7555,-3.12958 0,-9.14683 -4.21671,-8.72516 -9.38874,0.93887 -5.375,10.04327 -8.74671,9.90691 -11.34838,-0.45896 l -2.07888,-8.28292 -4.16594,7.95098 c -5.11384,9.76012 -18.9172,14.8838 -39.98869,14.84345 l -15.963297,-0.0306 z"
     id="path589" />
  <path
     style="fill:#ffffff;stroke-width:3.12958"
     d="m 665.33785,430.68099 c -2.09799,-2.52792 -7.84272,-4.34799 -12.76608,-4.04461 -8.99568,0.55432 -46.9976,-20.78396 -46.9976,-26.38941 0,-1.49392 -2.46455,-2.50969 -5.47677,-2.25726 -13.22142,1.10798 -16.43031,-0.5895 -16.43031,-8.69155 0,-5.96649 -1.26139,-7.67474 -4.69437,-6.35739 -5.47003,2.09905 -6.04593,-2.1474 -1.45468,-10.72622 3.82775,-7.15221 0.71077,-7.65879 -7.74983,-1.25952 -9.05389,6.84802 -12.06496,5.60159 -9.6908,-4.01151 1.71376,-6.93911 1.3551,-7.84852 -1.85143,-4.69437 -6.41406,6.30926 -14.92034,4.91718 -13.07492,-2.13974 1.33392,-5.1009 -0.31017,-6.20725 -10.46413,-7.04156 -12.60878,-1.03603 -12.78784,-1.42899 -8.65074,-18.98494 1.81751,-7.71271 1.17781,-8.60635 -6.1607,-8.60635 -5.79911,0 -8.18879,-1.64391 -8.18879,-5.63325 0,-10.86302 -6.60101,-13.13631 -38.9633,-13.41842 -17.29876,-0.15079 -38.49386,-1.3209 -47.10021,-2.60023 l -15.64791,-2.32607 12.40522,-5.54536 12.40521,-5.54537 -17.09959,-7.37662 c -19.96719,-8.61369 -13.16148,-10.22583 8.68589,-2.05752 17.94782,6.71033 43.69737,4.48493 63.19405,-5.46153 16.39315,-8.36316 55.32132,-13.72868 84.25787,-11.61337 14.24,1.04096 26.01615,0.31631 30.88107,-1.90029 6.73706,-3.06962 8.62845,-2.63838 13.20237,3.01018 2.93632,3.6262 8.05206,7.28505 11.3683,8.13078 4.56707,1.16471 4.03501,1.62573 -2.19362,1.90071 -4.52273,0.19967 -9.97634,2.47551 -12.11913,5.05741 -2.14279,2.58191 -5.59053,4.69438 -7.66163,4.69438 -4.61384,0 -17.37503,13.18002 -17.37503,17.94529 0,1.90231 6.77132,5.70783 15.04739,8.45669 18.9511,6.29455 38.77532,26.1711 47.01908,47.1432 3.38301,8.60635 12.62588,28.91447 20.53973,45.12916 14.00496,28.69478 15.85257,36.10585 7.21397,28.93645 -2.86368,-2.37664 -5.24235,-2.47728 -7.4063,-0.31333 -2.16395,2.16396 -4.41286,1.7116 -7.00228,-1.40846 z"
     id="path591" />
  <path
     style="fill:#ffffff;stroke-width:3.12958"
     d="m 1010.0727,460.14229 c -3.8729,-3.62818 -7.0416,-9.35845 -7.0416,-12.73394 0,-7.51637 -5.40748,-8.17648 -6.82175,-0.83276 -0.79898,4.14875 -3.58941,2.61452 -12.80709,-7.04156 -6.48204,-6.79033 -12.61568,-15.51475 -13.63031,-19.38761 -2.08098,-7.94314 -4.47852,-8.73661 -9.92907,-3.28606 -2.92094,2.92094 -3.7555,2.57321 -3.7555,-1.56479 0,-2.92616 -1.40831,-5.32029 -3.12958,-5.32029 -1.72127,0 -3.12958,-5.63325 -3.12958,-12.51833 0,-13.16603 -2.92038,-15.61786 -9.36015,-7.85841 -5.37656,6.47835 -10.31005,2.45252 -8.04651,-6.56613 1.59027,-6.33613 0.72529,-7.48254 -5.64565,-7.48254 -4.57178,0 -9.53499,-3.06969 -12.6501,-7.82395 -2.81955,-4.30318 -7.8014,-7.82396 -11.07077,-7.82396 -4.04652,0 -7.12768,-3.58566 -9.65091,-11.23112 -2.8195,-8.54314 -5.07624,-10.87295 -9.42934,-9.73459 -3.26787,0.85456 -6.48138,-0.48049 -7.49128,-3.11225 -0.97271,-2.53483 -3.51719,-4.0259 -5.65441,-3.3135 -2.13722,0.71241 -5.34044,-1.63502 -7.11825,-5.21651 -1.77783,-3.5815 -6.28798,-6.95163 -10.02258,-7.48919 -4.42178,-0.63648 -6.18795,-2.54676 -5.0636,-5.47677 1.16481,-3.03545 -0.41886,-4.49939 -4.86742,-4.49939 -3.6267,0 -6.59399,-1.40831 -6.59399,-3.12958 0,-1.72127 -2.11247,-3.12958 -4.69438,-3.12958 -2.5819,0 -4.69437,-1.56504 -4.69437,-3.47788 0,-2.29785 -3.82098,-2.76105 -11.2616,-1.36518 -8.37323,1.57083 -10.66541,1.14804 -8.93712,-1.6484 1.78874,-2.89424 -5.89429,-3.23255 -33.33494,-1.46786 -19.61269,1.26128 -34.95528,1.61954 -34.09464,0.79613 3.53178,-3.37903 80.51254,-36.04403 89.19309,-37.84701 13.76004,-2.85802 69.2766,-9.14163 89.1931,-10.09526 9.46698,-0.4533 21.55055,-1.74371 26.85237,-2.86759 6.96309,-1.47604 12.61141,-0.23176 20.34229,4.48125 9.32743,5.68631 9.79784,6.52617 3.66105,6.53637 -3.87286,0.006 -7.04156,1.3251 -7.04156,2.93038 0,1.60528 -3.1687,3.87311 -7.04156,5.03961 -3.87286,1.16651 -11.2665,6.00506 -16.43031,10.75233 -5.16381,4.74728 -11.99588,10.00887 -15.18238,11.69244 -5.03681,2.66116 -3.19713,4.69817 14.08312,15.59372 10.93221,6.89298 24.80585,15.01973 30.83029,18.05944 17.20975,8.68339 24.79282,17.30836 29.67674,33.75427 2.48985,8.38423 10.67045,24.66251 18.17905,36.17395 19.7026,30.20606 41.4159,77.0623 34.3159,74.05228 -3.0233,-1.28173 -8.3135,-2.49212 -11.7561,-2.68975 -3.4425,-0.19764 -7.3854,-2.11973 -8.7618,-4.27131 -3.9048,-6.10359 -11.0392,-4.59815 -12.1452,2.5628 l -1.0001,6.47477 z"
     id="path593" />
  <path
     style="fill:#ffffff;stroke-width:3.12958"
     d="m 1385.0639,442.30133 -13.7622,-11.77989 2.3095,9.20183 c 2.242,8.93274 2.1329,9.04195 -3.7317,3.73458 -3.3227,-3.00698 -8.1882,-4.64338 -10.8122,-3.63644 -2.9577,1.13496 -7.5903,-1.60904 -12.1886,-7.21957 -4.0796,-4.9777 -12.6987,-11.46693 -19.1534,-14.42051 -7.7225,-3.53367 -11.736,-7.4604 -11.736,-11.48247 0,-3.36178 -1.3641,-6.11233 -3.0313,-6.11233 -1.6673,0 -2.2602,-2.00971 -1.3176,-4.46603 1.2827,-3.34257 -0.1197,-4.02274 -5.575,-2.70382 -5.9809,1.446 -6.5868,1.01194 -3.3768,-2.41905 6.1861,-6.61191 4.5906,-9.47817 -4.0665,-7.30538 -7.4327,1.8655 -7.8298,1.41045 -5.8062,-6.65249 2.0401,-8.12818 1.6685,-8.52853 -6.1046,-6.57759 -8.5199,2.13834 -9.9982,-0.29016 -8.8097,-14.47219 0.3244,-3.87155 -1.8234,-5.47677 -7.3281,-5.47677 -4.2829,0 -7.7871,-1.40831 -7.7871,-3.12958 0,-1.72127 -2.7724,-3.12958 -6.1609,-3.12958 -4.1906,0 -5.5848,-1.5013 -4.3595,-4.69437 1.402,-3.65367 -0.8746,-4.74133 -10.2694,-4.90619 -10.9744,-0.19257 -11.4312,-0.52027 -5.0292,-3.60783 3.8728,-1.8678 7.0416,-4.67223 7.0416,-6.23205 0,-1.55982 -1.4884,-1.91618 -3.3075,-0.79192 -5.8444,3.61202 -18.5506,-1.29062 -16.5895,-6.40099 1.236,-3.22111 -0.2494,-4.66247 -4.8049,-4.66247 -3.6267,0 -6.594,-1.40832 -6.594,-3.12959 0,-1.72127 -6.9466,-3.12958 -15.437,-3.12958 -12.9022,0 -15.7773,-1.07232 -17.5097,-6.53048 l -2.0727,-6.53048 -6.0841,6.53048 c -7.647,8.20812 -38.4283,9.57337 -41.3973,1.83611 -1.1918,-3.10561 0.1128,-4.69437 3.8545,-4.69437 3.1108,0 19.9992,-7.01412 37.5297,-15.58694 43.097,-21.07541 74.9752,-29.24656 115.2876,-29.55097 21.0736,-0.15912 33.251,-1.57045 35.8337,-4.15302 5.4534,-5.45319 21.2451,-4.92599 23.4356,0.7824 0.9908,2.58191 4.8195,4.80556 8.5082,4.94145 4.6694,0.17202 5.2855,0.8042 2.0279,2.08117 -2.5733,1.00876 -11.5463,6.66124 -19.9401,12.56107 -8.3937,5.89983 -20.7503,13.0611 -27.459,15.91392 l -12.1978,5.18696 27.4435,20.34228 c 26.8676,19.91547 27.7849,21.03177 43.719,53.2029 8.9516,18.07334 18.6308,39.90218 21.5094,48.50853 2.8786,8.60635 6.469,16.98581 7.9787,18.62101 5.5321,5.9921 2.5535,8.77732 -3.5143,3.28606 -8.3135,-7.52361 -8.0492,-2.30877 0.3354,6.61615 11.8498,12.61361 4.6128,14.31845 -9.5004,2.23804 z"
     id="path595" />
  <path
     style="fill:#ffffff;stroke-width:3.12958"
     d="m 1734.461,386.91943 -11.4104,-10.45149 -2.9027,8.14732 c -2.8052,7.87349 -2.9766,7.72192 -5.0992,-4.5098 -2.4961,-14.38302 -12.1168,-18.56551 -15.3774,-6.68507 -1.5688,5.7164 -2.3729,6.062 -4.9545,2.12948 -1.695,-2.5819 -3.1597,-8.21515 -3.255,-12.51833 l -0.1732,-7.82395 -4.7786,8.81561 c -3.8745,7.14747 -5.6273,8.1113 -9.2635,5.09356 -2.4666,-2.04712 -4.4848,-6.39869 -4.4848,-9.67015 0,-5.61882 -0.4313,-5.66546 -7.7921,-0.84254 -7.1448,4.68147 -7.9525,4.68746 -9.7235,0.0721 -1.0624,-2.76838 -5.1698,-5.03341 -9.1277,-5.03341 -5.6373,0 -6.8442,-1.34575 -5.5715,-6.2124 2.4251,-9.27376 -1.474,-17.68309 -6.0687,-13.08842 -5.7773,5.77728 -8.6602,4.30598 -8.6602,-4.41971 0,-7.39259 -0.8141,-7.89381 -9.6643,-5.94998 -9.0722,1.99258 -9.449,1.72017 -6.1491,-4.44571 4.4616,-8.33666 0.6992,-8.52784 -14.8247,-0.75328 -14.7489,7.38645 -28.824,10.81619 -28.824,7.02368 0,-1.61063 1.7604,-3.63874 3.912,-4.50693 2.1516,-0.86818 0.6602,-1.6897 -3.3143,-1.82559 -4.6394,-0.15864 -6.4248,-1.54386 -4.9874,-3.86964 1.5861,-2.56638 0.043,-2.9644 -5.292,-1.36517 -4.1421,1.24157 -13.8684,3.08805 -21.6141,4.10329 l -14.0831,1.84589 9.3887,-7.7589 c 16.187,-13.37696 38.7552,-27.81826 54.0897,-34.61161 23.7189,-10.50783 66.5282,-21.18257 84.9491,-21.18257 10.8946,0 21.912,-2.36382 30.5843,-6.56202 l 13.5553,-6.56202 13.2518,6.55955 c 7.2885,3.60775 11.0056,6.56066 8.2601,6.56202 -2.7454,10e-4 -7.5407,2.81909 -10.6562,6.26163 -3.1154,3.44254 -7.2066,6.30342 -9.0914,6.35751 -1.8848,0.0541 -6.0428,3.68835 -9.24,8.07613 -5.7097,7.83597 -5.6955,8.06013 0.8003,12.60996 9.1533,6.41124 14.3965,17.99169 18.9288,41.80721 2.1293,11.18826 7.993,30.05706 13.0307,41.93068 5.0376,11.87362 8.6831,22.06452 8.1012,22.64646 -0.5819,0.58193 -6.1927,-3.64511 -12.4684,-9.39343 z"
     id="path597" />
  <path
     style="fill:#ffffff;stroke-width:3.12958"
     d="m 2060.203,347.54274 c -2.6823,-4.29505 -4.9274,-5.17234 -7.5873,-2.96481 -2.6996,2.24046 -4.3715,1.26455 -5.8581,-3.41948 -1.4984,-4.72093 -3.7609,-6.02135 -8.0872,-4.64825 -6.0998,1.93601 -7.8576,-3.08996 -6.4662,-18.48857 0.4441,-4.91533 -0.2507,-5.24037 -4.1985,-1.96398 -3.9898,3.31118 -4.7695,2.76318 -4.9778,-3.49862 -0.2366,-7.10841 -0.3813,-7.05724 -3.3969,1.20109 -3.7179,10.18157 -8.8744,8.47642 -8.8744,-2.93458 0,-6.38839 -0.8624,-7.30675 -4.2338,-4.50869 -2.3286,1.93257 -14.7201,4.40018 -27.5367,5.48358 -19.7799,1.67201 -24.1365,1.13621 -28.8167,-3.544 -4.4271,-4.42712 -8.7146,-5.14433 -21.7542,-3.63905 l -16.2404,1.87476 7.8239,-6.08611 c 9.0995,-7.0783 5.1394,-8.0469 -6.2591,-1.53092 -4.3032,2.45991 -10.5068,4.52248 -13.7858,4.58347 -5.7953,0.1078 -5.801,-0.0668 -0.2059,-6.24931 8.832,-9.75925 25.1035,-18.86929 44.7099,-25.03199 14.7873,-4.64794 16.2055,-5.6617 8.4015,-6.00567 l -9.3887,-0.41382 14.0481,-12.69607 c 27.5835,-24.92865 58.6474,-37.12054 94.58,-37.12054 14.1853,0 18.12,1.04069 18.12,4.79259 0,2.63593 -1.9854,5.55445 -4.412,6.48561 -7.1538,2.7452 -8.9957,16.62933 -3.3493,25.24691 4.1559,6.34263 6.6801,7.33646 14.3531,5.65118 6.1826,-1.35793 11.8592,-0.37494 16.8971,2.92605 4.1727,2.73403 10.1008,5.06024 13.1736,5.16934 4.0765,0.14475 3.4957,1.03291 -2.1488,3.28548 -4.2546,1.69791 -8.7119,4.66676 -9.9051,6.59745 -1.1932,1.93068 -8.2745,4.34596 -15.7363,5.36729 -15.1965,2.08003 -15.1332,1.85848 -8.9937,31.49515 7.1055,34.29954 7.2836,36.65686 2.3049,30.51342 -6.1057,-7.5342 -7.84,-6.86456 -6.0791,2.34719 1.7903,9.36546 -0.8784,10.11719 -6.1201,1.7239 z"
     id="path599" />
  <path
     style="fill:#ffffff;stroke-width:3.12958"
     d="m 2375.3529,326.47027 c -27.3572,-6.4197 -29.7312,-7.56992 -29.7516,-14.41507 -0.019,-6.31962 -0.5609,-6.10521 -6.2386,2.46782 -5.6339,8.50703 -6.2198,8.7448 -6.2385,2.53188 -0.028,-9.34484 -2.2781,-10.10378 -20.3629,-6.86864 -8.6064,1.53957 -21.2812,3.48813 -28.1662,4.33014 -12.2362,1.49641 -12.2926,1.45971 -2.5013,-1.62798 14.0976,-4.44568 15.9034,-9.313 3.4683,-9.34855 l -10.3558,-0.0296 12.5183,-7.44036 c 6.8851,-4.0922 20.7221,-10.00272 30.749,-13.13449 10.0268,-3.13177 19.5824,-8.22016 21.2347,-11.30753 1.9898,-3.7178 1.9102,-5.6134 -0.2354,-5.6134 -1.7819,0 -3.2397,-2.19558 -3.2397,-4.87907 0,-2.68349 -1.4083,-4.00869 -3.1296,-2.94488 -1.7213,1.0638 -3.1296,0.52587 -3.1296,-1.1954 0,-1.72127 1.4083,-3.99996 3.1296,-5.06377 1.7213,-1.0638 3.1296,-4.04665 3.1296,-6.62856 0,-2.5819 -1.4083,-3.82399 -3.1296,-2.76018 -1.7213,1.0638 -3.1296,0.45469 -3.1296,-1.35358 0,-1.80827 2.8166,-5.04677 6.2592,-7.19667 9.4304,-5.88938 7.5265,-9.40182 -3.912,-7.21737 l -10.1712,1.94241 10.9536,-9.82615 10.9535,-9.82615 -11.7359,1.24481 c -6.4548,0.68465 -11.7359,0.1193 -11.7359,-1.25634 0,-1.37564 -2.8167,-2.50116 -6.2592,-2.50116 -3.4426,0 -6.2592,-1.50321 -6.2592,-3.34048 0,-1.96206 -2.9056,-2.52681 -7.0415,-1.36862 -13.987,3.91679 7.4209,-10.24492 25.819,-17.07974 27.7738,-10.31785 71.9804,-14.22613 71.9804,-6.36374 0,1.32746 -4.9291,9.57921 -10.9535,18.33721 -6.0245,8.75801 -10.9536,17.51469 -10.9536,19.45929 0,1.94461 3.5988,7.81257 7.9973,13.03992 4.3986,5.22734 11.3072,16.03595 15.3526,24.01912 11.3747,22.44681 27.9067,28.16573 49.3599,17.07502 7.7536,-4.00838 9.1437,-3.83162 14.8656,1.89027 3.4716,3.47168 8.0725,6.33168 10.2241,6.35556 2.1516,0.0238 -2.2117,3.17786 -9.6961,7.00885 -7.4844,3.83099 -15.6078,10.83261 -18.052,15.55916 -2.4997,4.83395 -8.1844,9.51406 -12.9934,10.69736 -4.7022,1.157 -14.2389,4.52129 -21.1926,7.4762 -15.3163,6.50851 -29.0174,9.12662 -37.4302,7.15246 z"
     id="path601" />
  <path
     style="fill:#ffffff;stroke-width:3.12958"
     d="m 2646.0618,327.39481 c 0,-3.3159 -1.7334,-4.20176 -5.4768,-2.79887 -11.6558,4.36823 3.1363,-8.55528 26.3593,-23.02953 13.9325,-8.6838 25.1312,-18.20918 28.0549,-23.86302 4.7177,-9.12284 4.5996,-9.62255 -3.8663,-16.37304 -8.682,-6.92282 -8.694,-6.98359 -2.0708,-10.52818 3.6638,-1.96084 9.2187,-3.6021 12.3441,-3.64724 3.131,-0.0452 0.23,-2.53172 -6.461,-5.53778 -10.8423,-4.87118 -11.5968,-5.90936 -7.0415,-9.68988 6.9399,-5.7596 6.4173,-14.70982 -1.1692,-20.02361 -5.9895,-4.19517 -5.7084,-4.61346 6.2591,-9.31444 15.4357,-6.06331 15.9852,-10.75292 1.5767,-13.45598 -11.9654,-2.24472 -13.4442,-4.78394 -6.2591,-10.74705 5.7931,-4.80783 6.0759,-9.38875 0.5796,-9.38875 -2.2631,0 -6.4456,-4.8878 -9.2944,-10.86178 -4.5481,-9.53751 -6.5283,-10.81109 -16.2415,-10.44593 -16.4188,0.61724 -16.0321,-1.87088 1.7223,-11.08219 17.8946,-9.28402 43.1307,-11.00884 71.634,-4.89598 26.6926,5.72452 30.3349,14.87687 18.5749,46.67463 -12.8553,34.75953 -13.702,44.35191 -5.5023,62.3348 12.1145,26.56844 45.25,40.21946 64.6472,26.6331 6.4291,-4.5031 8.0128,-4.44703 18.7073,0.66229 l 11.6836,5.58185 -9.9406,9.94052 c -5.4672,5.46728 -18.1491,13.9712 -28.182,18.8976 -15.8893,7.8021 -21.8734,8.97075 -46.4077,9.06307 -15.4915,0.0583 -30.0267,1.25943 -32.3005,2.66921 -2.2738,1.40977 -10.3715,1.62787 -17.9951,0.48465 -10.9137,-1.63661 -13.8609,-3.36865 -13.8609,-8.14598 0,-3.33707 -1.4083,-6.0674 -3.1296,-6.0674 -1.7212,0 -3.1295,2.89974 -3.1295,6.44386 0,3.54412 -1.4084,5.57348 -3.1296,4.50968 -1.7213,-1.06381 -3.1296,0.26138 -3.1296,2.94488 0,3.18319 -2.863,4.87907 -8.237,4.87907 -4.5303,0 -12.9802,2.93149 -18.7775,6.51441 -8.8058,5.44229 -10.5405,5.71598 -10.5405,1.66301 z"
     id="path603" />
  <path
     style="fill:#ffffff;stroke-width:3.12958"
     d="m 3092.966,332.68031 c -13.1918,-0.92261 -17.4237,-2.32911 -16.2456,-5.39928 1.0787,-2.81099 -1.1079,-4.15166 -6.7714,-4.15166 -4.6005,0 -9.2607,-1.39973 -10.3559,-3.1105 -1.0952,-1.71078 -11.8494,-3.23772 -23.8983,-3.39322 -12.0489,-0.15547 -26.132,-1.57105 -31.2958,-3.14568 l -9.3888,-2.86297 9.3888,-3.74065 c 29.1633,-11.6192 48.8831,-23.10714 52.9595,-30.85204 2.4446,-4.64476 7.3723,-10.89579 10.9504,-13.89117 6.8133,-5.70367 8.68,-16.3125 3.4402,-19.5509 -1.9347,-1.19573 -1.6791,-4.11453 0.693,-7.91284 3.1524,-5.04781 2.6374,-7.06266 -3.1937,-12.49515 -8.3122,-7.74396 -9.7134,-27.27701 -2.1645,-30.17378 3.0215,-1.15947 4.0982,-4.00941 2.9187,-7.72574 -1.4184,-4.46881 -0.309,-5.88854 4.6011,-5.88854 8.3484,0 8.1707,-3.68228 -0.7057,-14.6254 -9.5801,-11.81068 -17.8609,-25.1565 -17.8609,-28.78565 0,-1.62069 2.8166,-2.21014 6.2591,-1.3099 9.8299,2.57056 7.23,-3.00691 -5.643,-12.10599 -14.5378,-10.27579 -22.6518,-23.723905 -16.5787,-27.477316 3.2702,-2.0211 3.3251,-3.958155 0.2737,-9.65975 -3.1358,-5.859269 -3.0538,-6.821416 0.4593,-5.392608 16.2302,6.60094 16.7001,6.309206 6.8152,-4.231693 -10.7021,-11.412258 -18.6209,-27.854149 -13.4152,-27.854149 1.6786,0 3.0949,-2.464546 3.1473,-5.476769 0.091,-5.21597 0.247,-5.21597 3.285,0 4.0566,6.964654 9.1381,7.074135 9.1381,0.196878 0,-4.305997 1.5875,-3.813357 8.6064,2.67081 4.7335,4.372885 10.9727,8.779436 13.865,9.792337 2.8922,1.0129 12.4409,12.485305 21.2192,25.494237 8.7783,13.008928 19.9365,28.230153 24.7958,33.824933 12.8855,14.8355 17.0878,23.88311 13.244,28.51456 -4.2051,5.0669 -5.058,101.25008 -0.9901,111.66406 3.8119,9.75883 7.0616,12.44572 28.4898,23.55589 l 16.9074,8.76622 11.8789,-6.83662 c 13.8814,-7.98916 26.4239,-8.83178 30.2299,-2.03089 1.4792,2.64315 6.8303,6.04288 11.8914,7.55496 5.8473,1.74694 7.0385,2.8473 3.2674,3.01823 -3.264,0.14794 -12.8163,6.70601 -21.2272,14.57346 -17.2401,16.12606 -38.7841,26.83613 -57.3369,28.50361 -29.2859,2.63215 -44.8623,3.12498 -61.6529,1.95067 z"
     id="path605" />
  <path
     style="fill:#ffffff;stroke-width:3.12958"
     d="m 3394.032,322.62491 c 3.828,-2.70052 3.2505,-3.32268 -3.1296,-3.37129 -7.3984,-0.0564 -7.2281,-0.42722 3.1296,-6.81711 19.8411,-12.24043 50.2171,-21.2459 64.8832,-19.23569 15.0515,2.06304 17.8517,-2.22633 5.2128,-7.985 -6.9091,-3.14799 -7.7983,-5.00312 -5.8663,-12.23828 2.6548,-9.94197 2.6474,-12.52256 -0.061,-21.25444 -1.4947,-4.81823 -0.1559,-7.35788 5.2501,-9.95933 l 7.2564,-3.49189 -8.0847,-0.21182 c -10.9455,-0.28676 -12.4845,-2.54867 -8.173,-12.01145 2.7099,-5.94764 2.7419,-8.35353 0.1228,-9.22656 -1.9486,-0.64954 -2.824,-3.93008 -1.9453,-7.29009 0.9016,-3.44783 0.027,-6.10911 -2.0072,-6.10911 -2.594,0 -2.6964,-1.69716 -0.365,-6.05343 4.3462,-8.12079 4.1006,-9.59448 -1.5986,-9.59448 -2.7804,0 -8.0873,-6.98851 -12.4768,-16.43031 -6.317,-13.58801 -6.8335,-16.60535 -2.9856,-17.44218 6.4125,-1.39454 5.8783,-3.62568 -3.1155,-13.01322 -4.2726,-4.45963 -8.6736,-12.63449 -9.78,-18.16634 -1.6686,-8.34292 -1.0514,-10.05793 3.6195,-10.05793 4.9633,0 4.7595,-0.92784 -1.7191,-7.82395 l -7.3502,-7.82396 h 8.7087 c 7.931,0 8.5184,-0.768644 6.5766,-8.606351 l -2.1322,-8.606351 6.6092,7.04156 c 7.3274,7.806678 12.6046,9.110999 12.6623,3.129582 0.021,-2.151588 3.3801,1.93302 7.4653,9.076905 4.0853,7.143885 16.6315,23.775625 27.8805,36.959425 26.1636,30.66353 35.232,56.42641 32.0005,90.91149 -1.8598,19.84661 -1.4113,22.70075 4.3921,27.95281 3.5549,3.21712 6.4634,8.42071 6.4634,11.56355 0,5.00098 1.8556,5.47379 14.8655,3.78785 8.1761,-1.05951 17.0889,-3.84919 19.8064,-6.19929 6.3939,-5.52957 15.1376,-5.47236 17.2809,0.11307 0.9257,2.41229 4.7544,5.4077 8.5082,6.65647 l 6.825,2.27049 -6.9783,1.37687 c -3.8381,0.75728 -14.823,9.03571 -24.4109,18.39651 -26.6687,26.03696 -38.2076,30.87404 -70.3222,29.47893 -40.0845,-1.74135 -52.5716,-1.55872 -78.2395,1.14428 -16.768,1.76577 -22.1311,1.52588 -18.7775,-0.83994 z"
     id="path607" />
</svg>
