<svg width="176" height="30" viewBox="0 0 176 30" fill="none" xmlns="http://www.w3.org/2000/svg">
<path d="M36.025 7.17638L28.725 23.8514L26.6417 9.35972C26.375 7.39305 29.725 6.17638 29.725 6.17638C29.4167 5.49305 28.3584 5.50972 28.3584 5.50972H26.0917C25.7334 1.94305 28.9667 -0.648615 32.4584 0.143052C35.8917 0.909718 37.1417 4.64305 36.025 7.17638Z" fill="#6E55DC"/>
<path d="M22.4666 29.2514L8.23332 19.768C4.60832 17.3514 1.02498 19.818 0.26665 22.3597C-0.850017 26.118 1.65832 29.2514 5.59165 29.2514H22.4666Z" fill="#FCCC12"/>
<path d="M24.3326 5.74301C24.8576 2.05968 21.5576 -0.665319 17.991 0.143015C14.5576 0.909681 13.3076 4.64301 14.4243 7.17635L21.7243 23.8513L24.3326 5.73468V5.74301Z" fill="#EF1541"/>
<path d="M21.141 26.593L14.1327 10.618C12.491 6.91801 8.14934 6.45968 5.74934 8.62634C4.05768 10.1597 2.74934 14.3263 6.52434 16.8513L21.141 26.593Z" fill="#FF7112"/>
<path d="M44.8584 29.2514C48.8001 29.2514 51.3001 26.1181 50.1834 22.3598C49.4251 19.8098 45.8417 17.3431 42.2167 19.7681L27.9834 29.2514H44.8584Z" fill="#05AC3F"/>
<path d="M43.9249 16.8513C47.6999 14.3263 46.3916 10.1597 44.6999 8.62634C42.2999 6.45968 37.9583 6.91801 36.3166 10.618L29.3083 26.593L43.9249 16.8513Z" fill="#069DE0"/>
<path d="M85.5085 0.75002H92.1918L105.95 19.1834V0.75002H112.217V29.25H105.533L91.7751 10.775V29.25H85.5085V0.75002Z" fill="white"/>
<path d="M144.109 20.275C144.109 28.025 137.9 29.25 134.017 29.25H117.45V0.75002H134C139.075 0.75002 143.134 3.63335 143.134 9.03335C143.134 11.7084 141.25 13.1834 139.817 13.9084C142.167 15.0917 144.109 16.8334 144.109 20.275ZM123.5 6.09169V11.4834H133.267C134.875 11.4834 136.65 10.8084 136.65 8.80835C136.65 6.80835 135.267 6.09169 133.042 6.09169H123.5ZM137.667 20.275C137.667 17.5417 135.392 16.8334 133.167 16.8334H123.5V23.6417H133.4C135.209 23.6417 137.667 23.0167 137.667 20.2834V20.275Z" fill="white"/>
<path d="M175.692 24.6C172.567 27.2833 169.2 30 162.542 30C153.692 29.9583 146.833 23.1 146.833 14.9417C146.875 6.54167 154.017 0 162.625 0C170.092 0 174.117 4.79167 174.642 5.31667L169.933 10.025C168.908 8.98333 166.692 6.61667 162.583 6.61667C157.575 6.61667 153.5 10.3667 153.5 14.975C153.5 18.9917 156.958 23.3333 162.55 23.3333C167.008 23.3333 168.65 21.875 171.392 19.575L175.7 24.6H175.692Z" fill="white"/>
<path d="M82.6415 24.6C79.5165 27.2833 76.1499 30 69.4915 30C60.6415 29.9583 53.7832 23.1 53.7832 14.9417C53.8249 6.54167 60.9665 0 69.5749 0C77.0415 0 81.0665 4.79167 81.5915 5.31667L76.8832 10.025C75.8582 8.98333 73.6415 6.61667 69.5332 6.61667C64.5249 6.61667 60.4499 10.3667 60.4499 14.975C60.4499 18.9917 63.9082 23.3333 69.4999 23.3333C73.9582 23.3333 75.5999 21.875 78.3415 19.575L82.6499 24.6H82.6415Z" fill="white"/>
</svg>
