<svg xmlns="http://www.w3.org/2000/svg" viewBox="0 0 358.49 77.11"><defs><style>.cls-1{fill:#fff;}.cls-2{fill:#03a4d9;}</style></defs><g id="Layer_2" data-name="Layer 2"><g id="Icone"><path class="cls-1" d="M76,60.24h5.63c4,0,5,2.52,5,4.41a3.78,3.78,0,0,1-2.94,3.72,3.7,3.7,0,0,1,3.06,3.79c0,1.88-1.13,4.57-5.11,4.57H76Zm5.67,7.19a2.64,2.64,0,1,0,0-5.26H78.1v5.26ZM78.1,69.38V74.8h3.6a2.6,2.6,0,0,0,2.88-2.71,2.69,2.69,0,0,0-2.83-2.71Z"/><path class="cls-1" d="M92.26,76.73H89.9l3.3-6.55L87,60.24h2.5l4.83,7.7,3.88-7.7h2.36Z"/><path class="cls-1" d="M109.83,71.48a3.47,3.47,0,0,0,3.72,3.69c1.91,0,3.28-1.08,3.28-2.8,0-2-1.7-2.57-3.14-3-3-.94-5.41-1.77-5.41-5.11,0-2.61,2.16-4.4,5.13-4.4a4.89,4.89,0,0,1,5.18,5h-2.14a2.86,2.86,0,0,0-3-3.11c-1.81,0-3,.94-3,2.47,0,1.79,1.48,2.38,3.06,2.85,2.55.82,5.49,1.81,5.49,5s-2.45,5-5.58,5a5.41,5.41,0,0,1-5.7-5.63Z"/><path class="cls-1" d="M123.94,62.17h-4.26V60.24h10.69v1.93h-4.28V76.73h-2.15Z"/><path class="cls-1" d="M132.49,60.24h2.22V76.73h-2.22Z"/><path class="cls-1" d="M148.18,73V60.24h2.15V76.73H148L140.53,64V76.73h-2.15V60.24h2.38Z"/><path class="cls-1" d="M163.31,68.79h7.93v1.93h-1.76c-.64,3.79-3.3,6.39-7.89,6.39-5.42,0-8.46-4.17-8.46-8.62a8.36,8.36,0,0,1,8.46-8.62c3.69,0,6.5,2.23,6.9,5h-2.17c-.42-1.69-2.28-3-4.73-3-3.91,0-6.27,3.22-6.27,6.69s2.19,6.68,6.53,6.68a5,5,0,0,0,5.34-4.45h-3.88Z"/><path class="cls-1" d="M173.7,60.24h5.79a5.62,5.62,0,0,1,2,10.88L185,76.73h-2.44l-3.28-5.25h-3.39v5.25H173.7Zm9.3,5.61a3.5,3.5,0,0,0-3.51-3.68h-3.65v7.35h3.65A3.48,3.48,0,0,0,183,65.85Z"/><path class="cls-1" d="M196.92,76.73l-.87-2.52h-6.69l-.85,2.52h-2.26l5.68-16.49h1.55l5.7,16.49Zm-4.19-13L190,72.25h5.37Z"/><path class="cls-1" d="M203.21,76.73h-2.35l3.3-6.55-6.22-9.94h2.49l4.83,7.7,3.89-7.7h2.35Z"/><path class="cls-2" d="M191.54,43.47c-1.17,5.14-6.06,9.16-12.57,9.16-8.66,0-13.93-6.48-13.93-13.93,0-7.19,5.15-13.85,13.48-13.85,7.87,0,12.19,4.57,13,10.29H187a7.61,7.61,0,0,0-7.87-6.4c-6.1,0-9.58,4.77-9.58,10,0,5.45,3.6,10,10,10a7.83,7.83,0,0,0,7.23-5.26Z"/><path class="cls-2" d="M194.38,38.73c0-7.19,5.19-13.88,13.71-13.88s13.7,6.69,13.7,13.88-5.19,13.9-13.7,13.9S194.38,45.93,194.38,38.73Zm22.83,0c0-5.14-3.48-10-9.12-10s-9.13,4.85-9.13,10,3.49,10,9.13,10S217.21,43.88,217.21,38.73Z"/><path class="cls-2" d="M241.25,44.34V25.49h4.35V52h-4.77L230.35,33.13V52H226V25.49h4.76Z"/><path class="cls-2" d="M276.3,43.47c-1.17,5.14-6.05,9.16-12.56,9.16-8.67,0-13.93-6.48-13.93-13.93,0-7.19,5.15-13.85,13.47-13.85,7.87,0,12.19,4.57,13,10.29h-4.58a7.61,7.61,0,0,0-7.87-6.4c-6.09,0-9.58,4.77-9.58,10,0,5.45,3.6,10,10,10a7.83,7.83,0,0,0,7.23-5.26Z"/><path class="cls-2" d="M284.83,29.39v7.49h10.93v3.9H284.83v7.3h10.93V52H280.47V25.49h15.29v3.9Z"/><path class="cls-2" d="M301.11,25.49h9.5A9.07,9.07,0,0,1,320,34.76a9.13,9.13,0,0,1-5.6,8.59L319.61,52h-5L309.81,44h-4.35V52h-4.35Zm14.49,9.27a5.06,5.06,0,0,0-5-5.37h-5.15V40.14h5.15C313.63,40.14,315.6,37.68,315.6,34.76Z"/><path class="cls-2" d="M327.38,29.39h-6.55v-3.9h17.48v3.9h-6.58V52h-4.35Z"/><path class="cls-2" d="M344.64,43.31c0,3.45,2.16,5.42,5.15,5.42,2.42,0,4.35-1.55,4.35-3.94,0-2.69-2.38-3.56-4.2-4.2-4.85-1.7-8.74-3.18-8.74-8.48,0-4.39,3.78-7.26,8.21-7.26a8.08,8.08,0,0,1,8.44,8.28H353.5c0-2.61-1.52-4.39-4-4.39-2.16,0-4,1.14-4,3.37s1.89,3.18,3.86,3.9c4.12,1.48,9.08,3.22,9.08,8.29,0,5.45-4.16,8.33-9.08,8.33a8.87,8.87,0,0,1-9.12-9.32Z"/><path class="cls-1" d="M70,69.17,60.65,57.29A34.57,34.57,0,1,0,34.59,69.17ZM10.75,34.59A23.84,23.84,0,1,1,34.59,58.42,23.86,23.86,0,0,1,10.75,34.59Z"/><polygon class="cls-2" points="27.89 22.71 48.56 34.65 27.89 46.58 27.89 22.71"/><path class="cls-1" d="M87.71,23.47a14.94,14.94,0,0,1,5.79,1.2,12.55,12.55,0,0,1,4.8,3.6A15.3,15.3,0,0,1,101,33.93a17.8,17.8,0,0,1,.54,4.55c0,.69,0,1.5-.1,2.44a1,1,0,0,1-1.1,1H81.27a8,8,0,0,0,3.09,3.71,8.27,8.27,0,0,0,4.7,1.44,8.1,8.1,0,0,0,6-2.45,1,1,0,0,1,.76-.32H96a1.07,1.07,0,0,1,.82.54L99.27,49a1.34,1.34,0,0,1,.17.6,1.06,1.06,0,0,1-.45.82A16.33,16.33,0,0,1,82.8,52.59a14.91,14.91,0,0,1-5.07-3.45A14.82,14.82,0,0,1,73.4,38.65a15.27,15.27,0,0,1,3.18-9.44,15,15,0,0,1,4.8-4.16,12.87,12.87,0,0,1,6.33-1.58M81.27,35.41H94.51a6.93,6.93,0,0,0-2-3.66,7.38,7.38,0,0,0-4.85-1.44,6.17,6.17,0,0,0-3.94,1.28A7.16,7.16,0,0,0,81.27,35.41Z"/><path class="cls-1" d="M105.1,50.23V24.94H104a1,1,0,0,1-1.09-1.1V19.17A1,1,0,0,1,104,18.05h5a3,3,0,0,1,2.17.91,3,3,0,0,1,.89,2.18V46.41h1.08a1,1,0,0,1,1.09,1.12V52.2a1,1,0,0,1-1.09,1.1h-4.87a3.06,3.06,0,0,1-3.09-3.07"/><path class="cls-1" d="M118.13,50.23V24.94H117a1,1,0,0,1-1.09-1.1V19.17A1,1,0,0,1,117,18.05h5a3,3,0,0,1,2.17.91,3,3,0,0,1,.89,2.18V46.41h1.08a1,1,0,0,1,1.09,1.12V52.2a1,1,0,0,1-1.09,1.1h-4.87a3.06,3.06,0,0,1-3.09-3.07"/><path class="cls-1" d="M144.51,23.47a15.41,15.41,0,0,1,11.09,4.46,14.83,14.83,0,0,1,0,21.49,16.14,16.14,0,0,1-22.17,0,14.85,14.85,0,0,1,0-21.49,15.32,15.32,0,0,1,11.08-4.46m0,6.84a8.37,8.37,0,0,0-5.94,2.42,8.24,8.24,0,0,0,0,11.88,8.43,8.43,0,0,0,11.88,0,8.17,8.17,0,0,0,0-11.88A8.43,8.43,0,0,0,144.51,30.31Z"/></g></g></svg>