<svg width="357" height="116" viewBox="0 0 357 116" fill="none" xmlns="http://www.w3.org/2000/svg">
<g clip-path="url(#clip0_928_3)">
<path d="M0 3.10205H35.2011L65.2038 58.7755H65.7973L64.3121 3.10205H97.8787V112.898H61.7892L32.6782 60.483H32.0848L33.57 112.898H0V3.10205Z" fill="#D01514"/>
<path d="M159.77 0C191.377 0 215.369 22.1769 215.369 57.3776C215.369 92.5783 191.38 115.997 159.77 115.997C128.159 115.997 104.312 92.5783 104.312 57.3776C104.312 22.1769 128.159 0 159.77 0ZM159.77 83.898C172.006 83.898 181.183 72.8046 181.183 57.341C181.183 41.8774 172.006 31.7925 159.77 31.7925C147.533 31.7925 138.357 41.8774 138.357 57.341C138.357 72.8046 147.381 83.898 159.77 83.898Z" fill="#D01514"/>
<path d="M269.522 112.898H236.924L210.707 3.10205H244.937L255.26 64.8232H255.804L266.943 3.10205H300.765L312.856 64.8232H313.399L323.859 3.10205H357.001L330.241 112.898H297.642L284.06 50.8673H283.516L269.526 112.898H269.522Z" fill="#D01514"/>
</g>
<defs>
<clipPath id="clip0_928_3">
<rect width="357" height="116" fill="white"/>
</clipPath>
</defs>
</svg>
