<?xml version="1.0" encoding="UTF-8" standalone="no"?>
<svg xmlns:dc="http://purl.org/dc/elements/1.1/" xmlns:cc="http://creativecommons.org/ns#" xmlns:rdf="http://www.w3.org/1999/02/22-rdf-syntax-ns#" xmlns:svg="http://www.w3.org/2000/svg" xmlns="http://www.w3.org/2000/svg" id="svg105266" version="1.1" viewBox="0 0 264.5833272454602 97.38349655669873" height="368.0635986328125" width="1000">
 <defs id="defs105260">
  <clipPath id="clipPath47021" clipPathUnits="userSpaceOnUse">
   <path id="path47019" d="M 0,0 H 595.2759999999999 V 595.2759999999999 H 0 Z" />
  </clipPath>
  <clipPath id="clipPath47069" clipPathUnits="userSpaceOnUse">
   <path id="path47067" d="M 0,0 H 595.2759999999999 V 595.2759999999999 H 0 Z" />
  </clipPath>
  <clipPath id="clipPath47085" clipPathUnits="userSpaceOnUse">
   <path id="path47083" d="M 0,0 H 595.2759999999999 V 595.2759999999999 H 0 Z" />
  </clipPath>
 </defs>
 <metadata id="metadata105263">
  <rdf:RDF>
   <cc:Work rdf:about="">
    <dc:format>image/svg+xml</dc:format>
    <dc:type rdf:resource="http://purl.org/dc/dcmitype/StillImage" />
    <dc:title></dc:title>
   </cc:Work>
  </rdf:RDF>
 </metadata>
 <g transform="translate(-101.6117922943354,-53.00363234032206)" id="layer1">
  <g id="g105210" transform="matrix(11.05510043703395,0,0,-11.05510043703395,-674.876352202055,2468.616041495124)">
   <path d="M 70.23799999999998,218.487 H 76.32399999999998 V 209.767 H 70.23799999999998 Z M 71.11499999999999,210.644 H 75.44299999999998 V 217.608 H 71.11499999999999 Z" style="fill:#ffd700" id="path47013" />
   <g id="g47015">
    <g id="g47017" clip-path="url(#clipPath47021)">
     <g id="g47023" transform="translate(82.12549999999997,210.3495)">
      <path d="M 0,0 C 0.053,-0.167 -0.009,-0.429 -0.024,-0.6089999999999998 H -0.3170000000000001 C -0.237,-0.3800000000000001 -0.087,-0.222 0,0" style="fill:#1b1c20" id="path47025" />
     </g>
     <g id="g47027" transform="translate(85.51049999999999,215.0251)">
      <path d="M 0,0 C -0.004,0.028 0.005,0.043 0.024,0.049 -0.3050000000000001,-0.198 -0.6590000000000001,-0.7610000000000001 -0.974,-1.023 -0.966,-0.544 -0.798,-0.225 -0.7309999999999996,0.195 H 0.3170000000000001 V -1.072 C 0.3170000000000001,-1.477 0.4160000000000001,-1.976 0.3170000000000001,-2.338 0.28,-2.47 0.093,-2.618 -0.024,-2.776 -0.358,-3.223 -0.679,-3.739 -0.95,-4.189 -0.9939999999999999,-3.731 -0.974,-3.271 -0.974,-2.801 -0.974,-2.351999999999999 -1.066,-1.828 -0.974,-1.412 -0.933,-1.229 -0.6560000000000001,-0.933 -0.511,-0.7309999999999996 -0.2990000000000001,-0.434 -0.137,-0.195 0,0" style="fill:#1b1c20" id="path47029" />
     </g>
     <g id="g47031" transform="translate(92.74299999999999,215.0251)">
      <path d="M 0,0 C 0.073,-0.09 -0.089,-0.156 -0.146,-0.219 -0.3400000000000001,-0.433 -0.561,-0.7320000000000001 -0.7549999999999998,-0.95 -0.9510000000000001,-0.9099999999999999 -1.206,-0.93 -1.437,-0.925 -1.533,-1.279 -1.39,-1.582 -1.461,-1.899 -1.498,-2.065 -1.683,-2.308 -1.802,-2.484 -2.122,-2.955999999999999 -2.441,-3.461 -2.727,-3.969 -2.784,-2.63 -2.736,-1.185 -2.752,0.195 -1.806,0.158 -0.6710000000000001,0.3110000000000001 0,0" style="fill:#1b1c20" id="path47033" />
     </g>
     <g id="g47035" transform="translate(82.83169999999998,211.4453)">
      <path d="M 0,0 C -0.2,-0.165 -0.3110000000000001,-0.4190000000000001 -0.511,-0.5839999999999998 V -0.049 C -0.5759999999999998,-0.2850000000000001 -0.6110000000000001,-0.55 -0.633,-0.8280000000000001 -0.839,-1.085 -1.004,-1.383 -1.169,-1.68 -1.453,-0.7229999999999997 -1.699,0.273 -1.924,1.291 -2.192,0.308 -2.397,-0.7360000000000001 -2.679,-1.705 H -3.848 C -3.26,-0.507 -2.636,0.6550000000000001 -1.899,1.705 -2.703,0.9089999999999999 -3.354,-0.25 -3.945,-1.339 -4.163999999999999,-0.6320000000000001 -4.351,0.312 -4.554000000000002,1.145 -4.616999999999999,1.403 -4.768,1.775 -4.749000000000004,1.973 -4.729,2.17 -4.486000000000001,2.426 -4.383,2.581 -4.246000000000003,2.79 -4.126999999999999,2.986 -3.969,3.141 -4.253000000000001,2.946 -4.533000000000003,2.536 -4.773000000000001,2.216 -4.955,2.684 -5.036000000000004,3.252 -5.163000000000002,3.775 H -3.848 C -3.611,2.737 -3.4,1.674 -3.19,0.6089999999999998 -2.914,1.656 -2.659,2.724 -2.386,3.775 H -1.364 C -1.079,2.728 -0.795,1.68 -0.56,0.5839999999999998 -0.297,1.62 -0.119,2.741 0.146,3.775 H 1.339 C 0.913,1.937 0.457,0.128 0.024,-1.705 H -0.511 C -0.476,-1.432 -0.562,-1.093 -0.511,-0.8280000000000001 -0.4480000000000002,-0.4940000000000001 -0.105,-0.253 0,0" style="fill:#1b1c20" id="path47037" />
     </g>
     <g id="g47039" transform="translate(87.60469999999999,214.6111)">
      <path d="M 0,0 C -0.412,-0.253 -0.7690000000000001,-0.773 -1.169,-1.12 V 0.5839999999999998 C -0.787,0.6410000000000001 -0.3010000000000001,0.5929999999999997 0.122,0.6089999999999998 V -3.726 H 1.778 C 1.754,-4.1 1.83,-4.574 1.729,-4.87 H -1.145 C -1.189,-4.039000000000001 -1.169,-3.216 -1.169,-2.338 -1.169,-2.066 -1.221,-1.745 -1.169,-1.51 -1.124,-1.306 -0.8200000000000001,-0.9680000000000001 -0.6580000000000001,-0.7549999999999998 -0.413,-0.434 -0.205,-0.245 -0.024,0 Z" style="fill:#1b1c20" id="path47041" />
     </g>
     <g id="g47043" transform="translate(85.80269999999997,212.2733)">
      <path d="M 0,0 C 0.057,-0.796 0.008,-1.697 0.024,-2.533 H -1.242 C -1.362,-1.909 -0.905,-1.474 -0.6580000000000001,-1.072 -0.4089999999999999,-0.6670000000000001 -0.205,-0.3220000000000001 0,0" style="fill:#1b1c20" id="path47045" />
     </g>
     <g id="g47047" transform="translate(90.2591,209.7407)">
      <path d="M 0,0 H -0.244 C -0.3460000000000001,0.459 -0.153,0.762 0.024,1.096 0.3350000000000001,1.682 0.6900000000000002,2.281 0.998,2.849 1.055,2.338 1.007,1.721 1.023,1.169 2.838,0.6480000000000001 2.981,3.745 1.899,4.262 2.104,4.609 2.323,4.942000000000001 2.581,5.236000000000001 3.345,4.900000000000003 3.821,4.234 3.895999999999999,3.263 4.078000000000002,0.905 2.704,-0.2910000000000001 0.17,0 0.3360000000000001,0.402 0.557,0.75 0.7549999999999998,1.12 0.4430000000000001,0.807 0.269,0.356 0,0" style="fill:#1b1c20" id="path47049" />
     </g>
     <g id="g47051" transform="translate(79.49790000000001,216.0448)">
      <path d="M 0,0 H -0.3050000000000001 C -0.7059999999999998,0.5659999999999999 -1.104,1.129 -1.501,1.765 H -1.504 V 0 H -1.842 V 2.461 H -1.536 C -1.135,1.899 -0.7379999999999999,1.34 -0.3440000000000001,0.7069999999999998 H -0.3370000000000001 V 2.461 H 0 Z" style="fill:#98989c" id="path47053" />
     </g>
     <g id="g47055" transform="translate(80.3001,217.019)">
      <path d="M 0,0 C 0.098,0.3240000000000001 0.197,0.6219999999999997 0.284,1.002 H 0.292 C 0.3900000000000001,0.6219999999999997 0.4780000000000001,0.3240000000000001 0.5689999999999999,0 Z M 0.161,1.487 -0.6889999999999999,-0.974 H -0.3240000000000001 L -0.11,-0.302 H 0.633 L 0.8260000000000001,-0.974 H 1.298 L 0.5129999999999999,1.487 Z" style="fill:#98989c" id="path47057" />
     </g>
    </g>
   </g>
   <g id="g47059" transform="translate(81.9946,216.0448)">
    <path d="M 0,0 V 2.131 H -0.6470000000000001 V 2.461 H 1.069 V 2.131 H 0.422 V 0 Z" style="fill:#98989c" id="path47061" />
   </g>
   <g id="g47063">
    <g id="g47065" clip-path="url(#clipPath47069)">
     <g id="g47071" transform="translate(85.63629999999999,217.1276)">
      <path d="M 0,0 V -1.016 C -0.225,-1.104 -0.4610000000000001,-1.167 -0.6989999999999999,-1.167 -1.424,-1.167 -1.881,-0.604 -1.881,0.12 -1.881,0.7919999999999999 -1.424,1.379 -0.686,1.379 -0.458,1.379 -0.229,1.294 -0.088,1.189 L -0.225,0.897 C -0.3380000000000001,0.9670000000000001 -0.514,1.027 -0.6750000000000001,1.027 -1.125,1.027 -1.431,0.6710000000000001 -1.431,0.112 -1.431,-0.4709999999999999 -1.079,-0.8149999999999998 -0.7169999999999997,-0.8149999999999998 -0.6049999999999996,-0.8149999999999998 -0.5099999999999996,-0.8019999999999999 -0.422,-0.7560000000000001 V 0 Z" style="fill:#98989c" id="path47073" />
     </g>
    </g>
   </g>
   <g id="g47075" transform="translate(87.14529999999999,218.1328)">
    <path d="M 0,0 H -0.7039999999999998 V -0.6750000000000001 H -0.015 V -1.005 H -0.7039999999999998 V -1.799 H 0.126 V -2.13 H -1.126 V 0.3310000000000001 H 0 Z" style="fill:#98989c" id="path47077" />
   </g>
   <g id="g47079">
    <g id="g47081" clip-path="url(#clipPath47085)">
     <g id="g47087" transform="translate(88.44600000000001,216.3122)">
      <path d="M 0,0 C -0.4400000000000003,0 -0.5950000000000001,0.4850000000000001 -0.5950000000000001,0.9559999999999998 -0.5950000000000001,1.409 -0.4190000000000001,1.842 0,1.842 0.418,1.842 0.5940000000000001,1.409 0.5940000000000001,0.9559999999999998 0.5940000000000001,0.4850000000000001 0.4390000000000001,0 0,0 M 0,-0.352 C 0.6430000000000001,-0.352 1.044,0.221 1.044,0.9559999999999998 1.044,1.645 0.6009999999999998,2.194 0,2.194 -0.6020000000000001,2.194 -1.045,1.645 -1.045,0.9559999999999998 -1.045,0.221 -0.6440000000000001,-0.352 0,-0.352" style="fill:#98989c" id="path47089" />
     </g>
    </g>
   </g>
  </g>
 </g>
</svg>
