<svg xmlns="http://www.w3.org/2000/svg" xmlns:xlink="http://www.w3.org/1999/xlink" width="966.31645" height="1000" viewBox="0 0 966.31645 1000"><defs><style>.a{fill:#002664;}.b{fill:url(#a);}</style><radialGradient id="a" cx="451.56216" cy="502.80917" r="41.46213" gradientTransform="matrix(13.93823, 0, 0, -13.93823, -5832.31483, 7367.9666)" gradientUnits="userSpaceOnUse"><stop offset="0" stop-color="#fff"/><stop offset="1" stop-color="#a8abad"/></radialGradient></defs><title>Warner TV</title><path class="a" d="M859.66862,395.92173c31.59388-135.62247,15.299-250.058,15.299-250.058L784.373,127.33017,777.90466,95.363,695.72694,76.29017l-12.5634-43.16209L464.24353,0,244.20371,33.12808,232.67787,75.25387,153.23578,94.40929l-9.28748,33.9575L54.39,145.86369S16.453,397.29018,163.51907,605.057c94.74112,133.83963,283.76659,226.549,299.60465,235.04878l.539.29007.58078-.29007c13.849-7.42176,163.3609-83.339,262.20674-186.3724A145.152,145.152,0,1,0,859.66862,395.92173"/><path class="a" d="M156.93432,861.18448,136.121,953.81093l-23.71723-92.62645H84.91462l-23.716,92.62645L40.17783,861.18448H0L39.7628,1000H77.6175l21.02082-86.98785L119.66041,1000h37.89645L197.3184,861.18448Zm55.64262,25.8724L170.03675,1000H203.082l5.59779-16.2534h44.53054L258.76506,1000h33.04646l-42.4997-112.94312Zm4.063,71.31491,14.388-42.49875,14.221,42.49875Zm178.45369-33.70854c0-20.98-14.22224-37.60637-39.26553-37.60637H299.2744V1000h29.10624V962.10355h14.88527L362.25463,1000h33.33622l-23.01118-41.46213c10.65529-3.73176,22.51391-14.22161,22.51391-33.87462m-43.70176,12.02406H328.38064V912.47344h23.01118c7.79566,0,14.05649,4.229,14.05649,12.02374,0,7.96078-6.26083,12.19013-14.05649,12.19013m131.26976,12.52132L436.929,887.05688h-29.978V1000h29.10624V934.65551L483.82189,1000h28.1117V887.05688h-29.272ZM530.5503,1000h82.799V974.62488h-53.651V955.46946H612.189V930.09465H559.6983V912.47344h53.651V887.05688h-82.799ZM724.427,924.66325c0-20.98-14.22224-37.60637-39.26426-37.60637H628.60783V1000h29.10625V962.10355h14.927L691.58933,1000H724.966l-23.05293-41.46213c10.697-3.73176,22.5139-14.22161,22.5139-33.87462m-43.66,12.02406H657.71408V912.47344H680.767c7.79566,0,14.05649,4.229,14.05649,12.02374,0,7.96078-6.26083,12.19013-14.05649,12.19013m244.95911-75.50283L891.6016,961.31557,857.23035,861.18448H721.73187v31.22124h38.93275V1000h35.82385V892.40572h31.92539L868.92194,1000H914.075l52.24143-138.81552Z"/><path class="b" d="M221.41008,185.04006c-6.67585-2.40411-21.72814,8.87245-29.89454,15.21426-8.20942,6.34686-27.36643,23.75772-27.36643,23.75772a697.93727,697.93727,0,0,0,3.94022,83.63284c4.0212,36.15284,13.3517,73.09523,21.56112,99.71764,21.8901,71.10614,72.51571,134.95439,72.51571,134.95439l38.271-55.84634s30.76508,84.58437,49.006,121.56726c35.32784,71.56165,97.063,120.61573,97.063,120.61573V122.6849s.043-8.584-5.30676-11.19558c-3.23417-1.57913-7.83489-2.15612-13.18468-2.15612a131.6295,131.6295,0,0,0-20.39955,1.984c-12.85316,2.20166-30.72206,10.36553-30.72206,10.36553V503.09693s-41.09013-73.5963-41.17364-195.118c-.04049-110.79176,0-163.738,0-163.738a11.45838,11.45838,0,0,0-5.13975-10.239c-5.88882-3.93769-17.37289.415-28.19394,5.30424-10.78056,4.93476-30.39308,15.71532-30.39308,15.71532s-2.94315,105.89748-.95406,139.23117c1.90811,33.37419,9.786,107.88658,9.786,107.88658l-15.00927,26.78437s-19.3215-37.56493-29.10751-102.32927a813.58111,813.58111,0,0,1-8.82943-121.57231S227.83539,187.3632,221.41008,185.04006Z"/><polygon class="b" points="864.197 471.833 835.796 555.132 807.187 471.833 694.408 471.833 694.408 497.828 726.834 497.828 726.834 587.388 756.602 587.388 756.602 497.828 783.181 497.828 816.889 587.388 854.495 587.388 897.989 471.833 864.197 471.833"/><path class="b" d="M242.72066,91.70977l-75.66889,18.20042-8.78894,32.34168-85.32838,16.7124S36.81957,398.36354,176.87827,596.30068c90.22265,127.45355,270.2504,215.73266,285.34319,223.81555l.539.28849.49854-.28849c13.14166-7.00989,154.11392-78.57155,248.19075-175.92557a146.546,146.546,0,0,1-30.76509-30.226C598.755,703.27622,474.9911,770.8597,463.216,777.20151l-.45552.20751-.45551-.20751c-13.51619-7.29839-174.01746-94.90942-250.14188-203.49445C92.54444,403.09079,110.20836,195.24363,110.20836,195.24363l68.66153-13.76672,8.78894-32.34168L268.055,128.52564l9.8265-40.17657L462.305,61.0282v-.12653l.45551.04555.45552-.04555v.12653L647.599,88.34907l9.82651,40.17657,80.39362,20.60959,8.832,32.34168,68.621,13.76672s7.00736,82.54973-17.70441,186.286a145.89832,145.89832,0,0,1,44.19776,7.17186c27.49043-125.46445,12.68867-229.73726,12.68867-229.73726l-86.32546-17.66392-6.0938-30.43864L683.75436,92.6613,671.77174,51.5737,463.259,19.98109,253.74923,51.5737Z"/><path class="b" d="M666.465,365.27279s82.54973-44.44323,83.21276-96.35694c.95406-74.21378-170.78076-143.7914-200.71832-151.08473-17.70441-4.31223-39.015-8.87245-53.07022-8.87245-5.39028,0-9.743.663-12.39764,2.31807a9.51706,9.51706,0,0,0-4.35271,7.2579V728.06645s70.89862-34.86726,131.84927-103.65533c9.65949-10.902,28.40146-30.307,46.85242-55.09726a145.28736,145.28736,0,0,1,45.73133-154.076C692.25227,383.56431,666.465,365.27279,666.465,365.27279ZM550.08048,593.81559V426.97s32.87818-18.24091,48.5935-17.66392h1.78158c8.41693-.20245,35.78336-.329,35.28482,42.13023C635.20135,497.78763,550.08048,593.81559,550.08048,593.81559Zm-.83-234.51007v-174.473s119.37065,33.99672,120.78023,79.81157C671.56423,314.60922,549.25043,359.30552,549.25043,359.30552Z"/><path class="b" d="M932.85614,526.62183c-.01519-75.12481-61.12021-136.21971-136.283-136.21971-75.12987,0-136.245,61.11515-136.245,136.245s61.11514,136.245,136.245,136.245c75.16277,0,136.26779-61.0949,136.283-136.21971Zm-136.283,130.5055c-71.8957,0-130.44223-58.544-130.44223-130.48019s58.54653-130.43971,130.44223-130.43971c71.9362,0,130.4802,58.50351,130.4802,130.43971S868.50936,657.12733,796.57316,657.12733Z"/></svg>